<svg width="80" height="90" viewBox="0 0 80 90" fill="none" xmlns="http://www.w3.org/2000/svg">
<path fill-rule="evenodd" clip-rule="evenodd" d="M40.2276 0C39.6725 2.54737 28.2928 10.3405 28.0702 13.3374C27.9588 14.8359 27.7901 15.729 28.3547 17.3119C28.9192 18.8949 29.6476 19.7543 31.6169 19.7626C39.2287 19.7951 31.353 14.9686 35.2205 14.8926C35.5815 14.8856 35.859 14.9344 36.074 15.0655C36.6297 15.4245 36.7682 16.4727 36.8706 19.1814C36.9939 22.4457 36.9718 26.0607 36.9275 29.7853C32.391 29.8129 27.9042 29.7943 24.0493 29.424C19.5275 28.9896 17.5453 26.1122 18.3025 23.3601C18.3216 23.2908 18.3513 23.225 18.3973 23.1716C18.4306 23.1354 18.485 23.0907 18.5301 23.0616C19.7241 22.3304 24.6781 23.8683 26.0597 24.2555C26.0041 22.5957 21.5224 18.1643 17.9042 18.3488C14.286 18.5332 10.3839 22.6287 11.5884 25.3395C12.7958 28.0566 15.8881 28.2648 15.8938 29.1098C15.8993 30.0335 12.8588 29.7244 10.9056 29.7853C9.48376 29.8296 9.87295 28.011 7.35894 28.1044C4.5536 28.2086 3.07548 31.8131 0 32.3774C3.07548 32.9417 4.5536 36.5619 7.35894 36.6661C9.87295 36.7595 9.48376 34.9408 10.9056 34.9852C12.8588 35.0461 15.8993 34.737 15.8938 35.6607C15.8881 36.5057 12.7958 36.7139 11.5884 39.431C10.3839 42.1417 14.286 46.2373 17.9042 46.4217C21.5224 46.6061 26.0041 42.1747 26.0597 40.5149C24.6781 40.9022 19.7241 42.44 18.5301 41.7088C18.485 41.6797 18.4306 41.6351 18.3973 41.5989C18.3513 41.5454 18.3216 41.4797 18.3025 41.4104C17.5453 38.6583 19.5275 35.7809 24.0493 35.3465C27.6178 35.0036 31.7221 34.9529 36.9844 34.9694C37.0579 35.7245 37.1444 35.3867 37.0792 37.9543C37.0294 39.9159 32.7865 43.576 30.5358 43.6097C30.6488 44.5582 39.9686 89.3009 40.3224 90C40.6732 89.3009 49.8064 44.5582 49.9194 43.6097C47.6687 43.576 43.4258 39.9159 43.376 37.9543C43.3112 35.402 43.3788 35.7228 43.4519 34.9852C46.644 34.9454 51.6857 34.9367 55.9507 35.3465C60.4725 35.7809 62.4547 38.6583 61.6975 41.4104C61.6887 41.4424 61.6743 41.4761 61.6596 41.5046C61.6439 41.5326 61.6239 41.5742 61.6027 41.5989C60.7084 42.5721 55.3814 40.9188 53.9403 40.5149C53.9959 42.1747 58.4776 46.6061 62.0958 46.4217C65.714 46.2373 69.6161 42.1417 68.4116 39.431C67.2042 36.7139 64.1119 36.5057 64.1062 35.6607C64.1007 34.737 67.1222 35.0461 69.0754 34.9852C70.4973 34.9408 70.127 36.7595 72.6411 36.6661C75.4464 36.5619 76.9245 32.9417 80 32.3774C76.9245 31.8131 75.4464 28.2086 72.6411 28.1044C70.127 28.011 70.4973 29.8296 69.0754 29.7853C67.3969 29.7329 64.9183 29.9464 64.2579 29.424C64.161 29.3411 64.1055 29.2325 64.1062 29.1098C64.1119 28.2648 67.2042 28.0566 68.4116 25.3395C69.6161 22.6287 65.714 18.5332 62.0958 18.3488C58.4776 18.1643 53.9959 22.5957 53.9403 24.2555C55.3814 23.8516 60.7084 22.1983 61.6027 23.1716C61.6487 23.225 61.6784 23.2908 61.6975 23.3601C62.4547 26.1122 60.4725 28.9896 55.9507 29.424C52.2271 29.7817 47.9058 29.8237 43.5277 29.801C43.4832 26.071 43.4422 22.4502 43.5657 19.1814C43.7081 15.4128 43.9143 14.8667 45.2347 14.8926C49.1022 14.9686 41.2075 19.7951 48.8193 19.7626C50.7886 19.7543 51.517 18.8949 52.0816 17.3119C52.6461 15.729 52.4963 14.8359 52.385 13.3374C52.1624 10.3405 40.7827 2.54737 40.2276 0Z" fill="white"/>
</svg>
