<svg width="30" height="40" viewBox="0 0 30 40" fill="none" xmlns="http://www.w3.org/2000/svg">
<path fill-rule="evenodd" clip-rule="evenodd" d="M15.0853 0C14.8772 1.13217 10.6098 4.59578 10.5263 5.92774C10.4846 6.59371 10.4213 6.99065 10.633 7.69419C10.8447 8.39772 11.1179 8.7797 11.8563 8.78338C14.7108 8.79782 11.7574 6.65272 13.2077 6.61896C13.3431 6.6158 13.4471 6.63752 13.5277 6.69576C13.7361 6.85532 13.7881 7.32119 13.8265 8.52505C13.8727 9.97586 13.8644 11.5825 13.8478 13.2379C12.1466 13.2502 10.4641 13.2419 9.01849 13.0773C7.32282 12.8842 6.57948 11.6054 6.86344 10.3823C6.87059 10.3515 6.88173 10.3222 6.899 10.2985C6.91147 10.2824 6.93189 10.2625 6.94879 10.2496C7.39653 9.92464 9.25429 10.6081 9.7724 10.7802C9.75153 10.0425 8.0709 8.07303 6.71408 8.155C5.35726 8.23697 3.89395 10.0572 4.34566 11.262C4.79842 12.4696 5.95804 12.5621 5.96017 12.9377C5.96223 13.3482 4.82207 13.2108 4.08962 13.2379C3.55641 13.2576 3.70236 12.4493 2.7596 12.4908C1.7076 12.5372 1.1533 14.1391 0 14.3899C1.1533 14.6408 1.7076 16.2497 2.7596 16.296C3.70236 16.3375 3.55641 15.5293 4.08962 15.549C4.82207 15.576 5.96223 15.4387 5.96017 15.8492C5.95804 16.2247 4.79842 16.3173 4.34566 17.5249C3.89395 18.7297 5.35726 20.5499 6.71408 20.6319C8.0709 20.7138 9.75153 18.7443 9.7724 18.0066C9.25429 18.1787 7.39653 18.8622 6.94879 18.5373C6.93189 18.5243 6.91147 18.5045 6.899 18.4884C6.88173 18.4646 6.87059 18.4354 6.86344 18.4046C6.57948 17.1815 7.32282 15.9026 9.01849 15.7095C10.3567 15.5572 11.8958 15.5346 13.8691 15.542C13.8967 15.8776 13.9292 15.7274 13.9047 16.8686C13.886 17.7404 12.2949 19.3671 11.4509 19.3821C11.4933 19.8037 14.9882 39.6893 15.1209 40C15.2525 39.6893 18.6774 19.8037 18.7198 19.3821C17.8758 19.3671 16.2847 17.7404 16.266 16.8686C16.2417 15.7342 16.267 15.8768 16.2945 15.549C17.4915 15.5313 19.3821 15.5274 20.9815 15.7095C22.6772 15.9026 23.4205 17.1815 23.1366 18.4046C23.1333 18.4188 23.1278 18.4338 23.1223 18.4465C23.1165 18.4589 23.109 18.4774 23.101 18.4884C22.7656 18.921 20.768 18.1862 20.2276 18.0066C20.2485 18.7443 21.9291 20.7138 23.2859 20.6319C24.6427 20.5499 26.106 18.7297 25.6543 17.5249C25.2016 16.3173 24.042 16.2247 24.0398 15.8492C24.0378 15.4387 25.1708 15.576 25.9033 15.549C26.4365 15.5293 26.2976 16.3375 27.2404 16.296C28.2924 16.2497 28.8467 14.6408 30 14.3899C28.8467 14.1391 28.2924 12.5372 27.2404 12.4908C26.2976 12.4493 26.4365 13.2576 25.9033 13.2379C25.2738 13.2146 24.3444 13.3095 24.0967 13.0773C24.0604 13.0405 24.0396 12.9922 24.0398 12.9377C24.042 12.5621 25.2016 12.4696 25.6543 11.262C26.106 10.0572 24.6427 8.23697 23.2859 8.155C21.9291 8.07303 20.2485 10.0425 20.2276 10.7802C20.768 10.6007 22.7656 9.86592 23.101 10.2985C23.1183 10.3222 23.1294 10.3515 23.1366 10.3823C23.4205 11.6054 22.6772 12.8842 20.9815 13.0773C19.5851 13.2363 17.9647 13.255 16.3229 13.2449C16.3062 11.5871 16.2908 9.97788 16.3371 8.52505C16.3905 6.85012 16.4678 6.60743 16.963 6.61896C18.4133 6.65272 15.4528 8.79782 18.3073 8.78338C19.0457 8.7797 19.3189 8.39772 19.5306 7.69419C19.7423 6.99065 19.6861 6.59371 19.6444 5.92774C19.5609 4.59578 15.2935 1.13217 15.0853 0Z" fill="white"/>
</svg>
