<svg width="32" height="32" viewBox="0 0 32 32" fill="none" xmlns="http://www.w3.org/2000/svg">
<path d="M24.7942 5.7016C23.5321 4.44091 22.7735 2.79708 22.7735 1H21.1921M24.7942 5.7016C25.9443 6.85094 27.5016 7.68682 29.2749 8.01412C29.8259 8.11861 30.4009 8.17439 31 8.17439V13.3286C27.933 13.3286 25.0894 12.472 22.7731 11.0232V21.5061C22.7731 26.7441 17.8849 31 11.8866 31C8.7476 31 5.91213 29.8297 3.92331 27.97C2.11023 26.2705 1 23.9997 1 21.5061C1 16.3447 5.74442 12.1376 11.623 12.0262M24.7942 5.7016C24.7635 5.68414 24.7329 5.66652 24.7024 5.64871M7.86114 24.0275C7.2701 23.3171 6.91866 22.4465 6.91866 21.4991C6.91866 19.1101 9.14709 17.1667 11.8868 17.1667C12.3979 17.1667 12.8931 17.2432 13.3563 17.3686V12.1029C12.8771 12.0471 12.3899 12.0122 11.8868 12.0122C11.7989 12.0122 11.0911 12.0533 11.0033 12.0533M21.1837 1H16.8546L16.8467 21.6663C16.7508 23.9788 14.5623 25.8386 11.8866 25.8386C10.2252 25.8386 8.76357 25.1212 7.85304 24.0346" stroke="white" stroke-width="2" stroke-linejoin="round"/>
</svg>
